<?xml version="1.0" encoding="UTF-8"?>
<!DOCTYPE svg
PUBLIC "-//W3C//DTD SVG 1.1//EN"
       "http://www.w3.org/Graphics/SVG/1.1/DTD/svg11.dtd">
<svg viewBox="77 141 1273 734" width="1196px" height="593px" xmlns="http://www.w3.org/2000/svg" version="1.1">
   <line x1="363" y1="448" x2="353" y2="448" style="stroke:#333;stroke-width:1;"/>
   <line x1="185" y1="308" x2="175" y2="308" style="stroke:#333;stroke-width:1;"/>
   <line x1="353" y1="448" x2="185" y2="308" style="stroke:#333;stroke-width:1;"/>
   <line x1="355.5" y1="448" x2="359.03553390593" y2="451.53553390593" style="stroke:#333;stroke-width:2;"/>
   <line x1="355.5" y1="448" x2="359.03553390593" y2="444.46446609407" style="stroke:#333;stroke-width:2;"/>
   <line x1="180" y1="308" x2="183.53553390593" y2="311.53553390593" style="stroke:#333;stroke-width:2;"/>
   <line x1="180" y1="308" x2="183.53553390593" y2="304.46446609407" style="stroke:#333;stroke-width:2;"/>
   <line x1="446" y1="428" x2="456" y2="428" style="stroke:#cb0;stroke-width:1;"/>
   <line x1="612" y1="273" x2="622" y2="273" style="stroke:#cb0;stroke-width:1;"/>
   <line x1="456" y1="428" x2="612" y2="273" style="stroke:#cb0;stroke-width:1;"/>
   <line x1="453.5" y1="428" x2="449.96446609407" y2="431.53553390593" style="stroke:#cb0;stroke-width:2;"/>
   <line x1="453.5" y1="428" x2="449.96446609407" y2="424.46446609407" style="stroke:#cb0;stroke-width:2;"/>
   <line x1="617" y1="273" x2="613.46446609407" y2="276.53553390593" style="stroke:#cb0;stroke-width:2;"/>
   <line x1="617" y1="273" x2="613.46446609407" y2="269.46446609407" style="stroke:#cb0;stroke-width:2;"/>
   <line x1="623" y1="649" x2="613" y2="649" style="stroke:#c00;stroke-width:1;"/>
   <line x1="612" y1="273" x2="622" y2="273" style="stroke:#c00;stroke-width:1;"/>
   <line x1="613" y1="649" x2="612" y2="273" style="stroke:#c00;stroke-width:1;"/>
   <line x1="615.5" y1="649" x2="619.03553390593" y2="652.53553390593" style="stroke:#c00;stroke-width:2;"/>
   <line x1="615.5" y1="649" x2="619.03553390593" y2="645.46446609407" style="stroke:#c00;stroke-width:2;"/>
   <line x1="617" y1="273" x2="613.46446609407" y2="276.53553390593" style="stroke:#c00;stroke-width:2;"/>
   <line x1="617" y1="273" x2="613.46446609407" y2="269.46446609407" style="stroke:#c00;stroke-width:2;"/>
   <line x1="623" y1="669" x2="613" y2="669" style="stroke:#cb0;stroke-width:1;"/>
   <line x1="612" y1="273" x2="622" y2="273" style="stroke:#cb0;stroke-width:1;"/>
   <line x1="613" y1="669" x2="612" y2="273" style="stroke:#cb0;stroke-width:1;"/>
   <line x1="615.5" y1="669" x2="619.03553390593" y2="672.53553390593" style="stroke:#cb0;stroke-width:2;"/>
   <line x1="615.5" y1="669" x2="619.03553390593" y2="665.46446609407" style="stroke:#cb0;stroke-width:2;"/>
   <line x1="617" y1="273" x2="613.46446609407" y2="276.53553390593" style="stroke:#cb0;stroke-width:2;"/>
   <line x1="617" y1="273" x2="613.46446609407" y2="269.46446609407" style="stroke:#cb0;stroke-width:2;"/>
   <line x1="364" y1="226" x2="354" y2="226" style="stroke:#0b0;stroke-width:1;"/>
   <line x1="185" y1="308" x2="175" y2="308" style="stroke:#0b0;stroke-width:1;"/>
   <line x1="354" y1="226" x2="185" y2="308" style="stroke:#0b0;stroke-width:1;"/>
   <line x1="356.5" y1="226" x2="360.03553390593" y2="229.53553390593" style="stroke:#0b0;stroke-width:2;"/>
   <line x1="356.5" y1="226" x2="360.03553390593" y2="222.46446609407" style="stroke:#0b0;stroke-width:2;"/>
   <line x1="180" y1="308" x2="183.53553390593" y2="311.53553390593" style="stroke:#0b0;stroke-width:2;"/>
   <line x1="180" y1="308" x2="183.53553390593" y2="304.46446609407" style="stroke:#0b0;stroke-width:2;"/>
   <line x1="447" y1="206" x2="457" y2="206" style="stroke:#0bf;stroke-width:1;"/>
   <line x1="612" y1="273" x2="622" y2="273" style="stroke:#0bf;stroke-width:1;"/>
   <line x1="457" y1="206" x2="612" y2="273" style="stroke:#0bf;stroke-width:1;"/>
   <line x1="454.5" y1="206" x2="450.96446609407" y2="209.53553390593" style="stroke:#0bf;stroke-width:2;"/>
   <line x1="454.5" y1="206" x2="450.96446609407" y2="202.46446609407" style="stroke:#0bf;stroke-width:2;"/>
   <line x1="617" y1="273" x2="613.46446609407" y2="276.53553390593" style="stroke:#0bf;stroke-width:2;"/>
   <line x1="617" y1="273" x2="613.46446609407" y2="269.46446609407" style="stroke:#0bf;stroke-width:2;"/>
   <line x1="175" y1="328" x2="185" y2="328" style="stroke:#c00;stroke-width:1;"/>
   <line x1="612" y1="273" x2="622" y2="273" style="stroke:#c00;stroke-width:1;"/>
   <line x1="185" y1="328" x2="612" y2="273" style="stroke:#c00;stroke-width:1;"/>
   <line x1="182.5" y1="328" x2="178.96446609407" y2="331.53553390593" style="stroke:#c00;stroke-width:2;"/>
   <line x1="182.5" y1="328" x2="178.96446609407" y2="324.46446609407" style="stroke:#c00;stroke-width:2;"/>
   <line x1="617" y1="273" x2="613.46446609407" y2="276.53553390593" style="stroke:#c00;stroke-width:2;"/>
   <line x1="617" y1="273" x2="613.46446609407" y2="269.46446609407" style="stroke:#c00;stroke-width:2;"/>
   <line x1="622" y1="413" x2="612" y2="413" style="stroke:#c00;stroke-width:1;"/>
   <line x1="612" y1="273" x2="622" y2="273" style="stroke:#c00;stroke-width:1;"/>
   <line x1="612" y1="413" x2="612" y2="273" style="stroke:#c00;stroke-width:1;"/>
   <line x1="614.5" y1="413" x2="618.03553390593" y2="416.53553390593" style="stroke:#c00;stroke-width:2;"/>
   <line x1="614.5" y1="413" x2="618.03553390593" y2="409.46446609407" style="stroke:#c00;stroke-width:2;"/>
   <line x1="617" y1="273" x2="613.46446609407" y2="276.53553390593" style="stroke:#c00;stroke-width:2;"/>
   <line x1="617" y1="273" x2="613.46446609407" y2="269.46446609407" style="stroke:#c00;stroke-width:2;"/>
   <line x1="622" y1="453" x2="612" y2="453" style="stroke:#0bf;stroke-width:1;"/>
   <line x1="612" y1="273" x2="622" y2="273" style="stroke:#0bf;stroke-width:1;"/>
   <line x1="612" y1="453" x2="612" y2="273" style="stroke:#0bf;stroke-width:1;"/>
   <line x1="614.5" y1="453" x2="618.03553390593" y2="456.53553390593" style="stroke:#0bf;stroke-width:2;"/>
   <line x1="614.5" y1="453" x2="618.03553390593" y2="449.46446609407" style="stroke:#0bf;stroke-width:2;"/>
   <line x1="617" y1="273" x2="613.46446609407" y2="276.53553390593" style="stroke:#0bf;stroke-width:2;"/>
   <line x1="617" y1="273" x2="613.46446609407" y2="269.46446609407" style="stroke:#0bf;stroke-width:2;"/>
   <line x1="986" y1="348" x2="996" y2="348" style="stroke:#333;stroke-width:1;"/>
   <line x1="1165" y1="337" x2="1175" y2="337" style="stroke:#333;stroke-width:1;"/>
   <line x1="996" y1="348" x2="1165" y2="337" style="stroke:#333;stroke-width:1;"/>
   <line x1="993.5" y1="348" x2="989.96446609407" y2="351.53553390593" style="stroke:#333;stroke-width:2;"/>
   <line x1="993.5" y1="348" x2="989.96446609407" y2="344.46446609407" style="stroke:#333;stroke-width:2;"/>
   <line x1="1170" y1="337" x2="1166.4644660941" y2="340.53553390593" style="stroke:#333;stroke-width:2;"/>
   <line x1="1170" y1="337" x2="1166.4644660941" y2="333.46446609407" style="stroke:#333;stroke-width:2;"/>
   <line x1="903" y1="328" x2="893" y2="328" style="stroke:#333;stroke-width:1;"/>
   <line x1="718" y1="273" x2="708" y2="273" style="stroke:#333;stroke-width:1;"/>
   <line x1="893" y1="328" x2="718" y2="273" style="stroke:#333;stroke-width:1;"/>
   <line x1="895.5" y1="328" x2="899.03553390593" y2="331.53553390593" style="stroke:#333;stroke-width:2;"/>
   <line x1="895.5" y1="328" x2="899.03553390593" y2="324.46446609407" style="stroke:#333;stroke-width:2;"/>
   <line x1="713" y1="273" x2="716.53553390593" y2="276.53553390593" style="stroke:#333;stroke-width:2;"/>
   <line x1="713" y1="273" x2="716.53553390593" y2="269.46446609407" style="stroke:#333;stroke-width:2;"/>
   <rect width="83" height="20" x="363" y="378" style="fill:#007;stroke:black;"/>
   <text width="83" height="20" x="368" y="392" style="fill:#fff;" font-family="Arial" font-size="16px"> comments</text>
   <rect width="83" height="20" x="363" y="398" style="fill:#aea;stroke:black;"/>
   <text width="83" height="20" x="368" y="412" style="fill:black;" font-family="Arial" font-size="16px">id</text>
   <rect width="83" height="20" x="363" y="418" style="fill:none;stroke:black;"/>
   <text width="83" height="20" x="368" y="432" style="fill:black;" font-family="Arial" font-size="16px">user_id</text>
   <rect width="83" height="20" x="363" y="438" style="fill:none;stroke:black;"/>
   <text width="83" height="20" x="368" y="452" style="fill:black;" font-family="Arial" font-size="16px">post_id</text>
   <rect width="83" height="20" x="363" y="458" style="fill:none;stroke:black;"/>
   <text width="83" height="20" x="368" y="472" style="fill:black;" font-family="Arial" font-size="16px">body</text>
   <rect width="83" height="20" x="363" y="478" style="fill:none;stroke:black;"/>
   <text width="83" height="20" x="368" y="492" style="fill:black;" font-family="Arial" font-size="16px">createdAt</text>
   <rect width="83" height="20" x="363" y="498" style="fill:none;stroke:black;"/>
   <text width="83" height="20" x="368" y="512" style="fill:black;" font-family="Arial" font-size="16px">updatedAt</text>
   <rect width="126" height="20" x="623" y="599" style="fill:#007;stroke:black;"/>
   <text width="126" height="20" x="628" y="613" style="fill:#fff;" font-family="Arial" font-size="16px"> follows</text>
   <rect width="126" height="20" x="623" y="619" style="fill:#aea;stroke:black;"/>
   <text width="126" height="20" x="628" y="633" style="fill:black;" font-family="Arial" font-size="16px">id</text>
   <rect width="126" height="20" x="623" y="639" style="fill:none;stroke:black;"/>
   <text width="126" height="20" x="628" y="653" style="fill:black;" font-family="Arial" font-size="16px">following_user_id</text>
   <rect width="126" height="20" x="623" y="659" style="fill:none;stroke:black;"/>
   <text width="126" height="20" x="628" y="673" style="fill:black;" font-family="Arial" font-size="16px">followed_user_id</text>
   <rect width="126" height="20" x="623" y="679" style="fill:none;stroke:black;"/>
   <text width="126" height="20" x="628" y="693" style="fill:black;" font-family="Arial" font-size="16px">createdAt</text>
   <rect width="126" height="20" x="623" y="699" style="fill:none;stroke:black;"/>
   <text width="126" height="20" x="628" y="713" style="fill:black;" font-family="Arial" font-size="16px">updatedAt</text>
   <rect width="83" height="20" x="364" y="156" style="fill:#007;stroke:black;"/>
   <text width="83" height="20" x="369" y="170" style="fill:#fff;" font-family="Arial" font-size="16px"> likes</text>
   <rect width="83" height="20" x="364" y="176" style="fill:#aea;stroke:black;"/>
   <text width="83" height="20" x="369" y="190" style="fill:black;" font-family="Arial" font-size="16px">id</text>
   <rect width="83" height="20" x="364" y="196" style="fill:none;stroke:black;"/>
   <text width="83" height="20" x="369" y="210" style="fill:black;" font-family="Arial" font-size="16px">user_id</text>
   <rect width="83" height="20" x="364" y="216" style="fill:none;stroke:black;"/>
   <text width="83" height="20" x="369" y="230" style="fill:black;" font-family="Arial" font-size="16px">post_id</text>
   <rect width="83" height="20" x="364" y="236" style="fill:none;stroke:black;"/>
   <text width="83" height="20" x="369" y="250" style="fill:black;" font-family="Arial" font-size="16px">createdAt</text>
   <rect width="83" height="20" x="364" y="256" style="fill:none;stroke:black;"/>
   <text width="83" height="20" x="369" y="270" style="fill:black;" font-family="Arial" font-size="16px">updatedAt</text>
   <rect width="83" height="20" x="92" y="278" style="fill:#007;stroke:black;"/>
   <text width="83" height="20" x="97" y="292" style="fill:#fff;" font-family="Arial" font-size="16px"> posts</text>
   <rect width="83" height="20" x="92" y="298" style="fill:#aea;stroke:black;"/>
   <text width="83" height="20" x="97" y="312" style="fill:black;" font-family="Arial" font-size="16px">id</text>
   <rect width="83" height="20" x="92" y="318" style="fill:none;stroke:black;"/>
   <text width="83" height="20" x="97" y="332" style="fill:black;" font-family="Arial" font-size="16px">user_id</text>
   <rect width="83" height="20" x="92" y="338" style="fill:none;stroke:black;"/>
   <text width="83" height="20" x="97" y="352" style="fill:black;" font-family="Arial" font-size="16px">body</text>
   <rect width="83" height="20" x="92" y="358" style="fill:none;stroke:black;"/>
   <text width="83" height="20" x="97" y="372" style="fill:black;" font-family="Arial" font-size="16px">createdAt</text>
   <rect width="83" height="20" x="92" y="378" style="fill:none;stroke:black;"/>
   <text width="83" height="20" x="97" y="392" style="fill:black;" font-family="Arial" font-size="16px">updatedAt</text>
   <rect width="83" height="20" x="1175" y="307" style="fill:#007;stroke:black;"/>
   <text width="83" height="20" x="1180" y="321" style="fill:#fff;" font-family="Arial" font-size="16px"> roles</text>
   <rect width="83" height="20" x="1175" y="327" style="fill:none;stroke:black;"/>
   <text width="83" height="20" x="1180" y="341" style="fill:black;" font-family="Arial" font-size="16px">name</text>
   <rect width="83" height="20" x="1175" y="347" style="fill:none;stroke:black;"/>
   <text width="83" height="20" x="1180" y="361" style="fill:black;" font-family="Arial" font-size="16px">createdAt</text>
   <rect width="83" height="20" x="1175" y="367" style="fill:none;stroke:black;"/>
   <text width="83" height="20" x="1180" y="381" style="fill:black;" font-family="Arial" font-size="16px">updatedAt</text>
   <rect width="86" height="20" x="622" y="243" style="fill:#007;stroke:black;"/>
   <text width="86" height="20" x="627" y="257" style="fill:#fff;" font-family="Arial" font-size="16px"> users</text>
   <rect width="86" height="20" x="622" y="263" style="fill:#aea;stroke:black;"/>
   <text width="86" height="20" x="627" y="277" style="fill:black;" font-family="Arial" font-size="16px">id</text>
   <rect width="86" height="20" x="622" y="283" style="fill:none;stroke:black;"/>
   <text width="86" height="20" x="627" y="297" style="fill:black;" font-family="Arial" font-size="16px">nickname</text>
   <rect width="86" height="20" x="622" y="303" style="fill:none;stroke:black;"/>
   <text width="86" height="20" x="627" y="317" style="fill:black;" font-family="Arial" font-size="16px">firstName</text>
   <rect width="86" height="20" x="622" y="323" style="fill:none;stroke:black;"/>
   <text width="86" height="20" x="627" y="337" style="fill:black;" font-family="Arial" font-size="16px">lastName</text>
   <rect width="86" height="20" x="622" y="343" style="fill:none;stroke:black;"/>
   <text width="86" height="20" x="627" y="357" style="fill:black;" font-family="Arial" font-size="16px">email</text>
   <rect width="86" height="20" x="622" y="363" style="fill:none;stroke:black;"/>
   <text width="86" height="20" x="627" y="377" style="fill:black;" font-family="Arial" font-size="16px">password</text>
   <rect width="86" height="20" x="622" y="383" style="fill:none;stroke:black;"/>
   <text width="86" height="20" x="627" y="397" style="fill:black;" font-family="Arial" font-size="16px">createdAt</text>
   <rect width="86" height="20" x="622" y="403" style="fill:none;stroke:black;"/>
   <text width="86" height="20" x="627" y="417" style="fill:black;" font-family="Arial" font-size="16px">createdBy</text>
   <rect width="86" height="20" x="622" y="423" style="fill:none;stroke:black;"/>
   <text width="86" height="20" x="627" y="437" style="fill:black;" font-family="Arial" font-size="16px">updatedAt</text>
   <rect width="86" height="20" x="622" y="443" style="fill:none;stroke:black;"/>
   <text width="86" height="20" x="627" y="457" style="fill:black;" font-family="Arial" font-size="16px">updatedBy</text>
   <rect width="83" height="20" x="903" y="278" style="fill:#007;stroke:black;"/>
   <text width="83" height="20" x="908" y="292" style="fill:#fff;" font-family="Arial" font-size="16px"> user_role</text>
   <rect width="83" height="20" x="903" y="298" style="fill:#aea;stroke:black;"/>
   <text width="83" height="20" x="908" y="312" style="fill:black;" font-family="Arial" font-size="16px">id</text>
   <rect width="83" height="20" x="903" y="318" style="fill:none;stroke:black;"/>
   <text width="83" height="20" x="908" y="332" style="fill:black;" font-family="Arial" font-size="16px">user_id</text>
   <rect width="83" height="20" x="903" y="338" style="fill:none;stroke:black;"/>
   <text width="83" height="20" x="908" y="352" style="fill:black;" font-family="Arial" font-size="16px">role_name</text>
   <rect width="83" height="20" x="903" y="358" style="fill:none;stroke:black;"/>
   <text width="83" height="20" x="908" y="372" style="fill:black;" font-family="Arial" font-size="16px">createdAt</text>
   <rect width="83" height="20" x="903" y="378" style="fill:none;stroke:black;"/>
   <text width="83" height="20" x="908" y="392" style="fill:black;" font-family="Arial" font-size="16px">updatedAt</text>
</svg>
